<svg id="Briefcase" xmlns="http://www.w3.org/2000/svg" viewBox="0 0 32 32"><defs><style>.cls-1{fill:#c6512b;}.cls-2{fill:#e67244;}.cls-3{fill:#eaeff0;}</style></defs><title>Briefcase</title><path class="cls-1" d="M20,9a1,1,0,0,1-1-1V6a1,1,0,0,0-1-1H14a1,1,0,0,0-1,1V8a1,1,0,0,1-2,0V6a3,3,0,0,1,3-3h4a3,3,0,0,1,3,3V8A1,1,0,0,1,20,9Z" id="id_101" style="fill: rgb(32, 178, 166);"></path><path class="cls-1" d="M9,29a5.006,5.006,0,0,1-5-5V12.313H28V24a5.006,5.006,0,0,1-5,5Z" id="id_102" style="fill: rgb(15, 20, 24);"></path><path class="cls-2" d="M12.917,19.5l-5.738-.955A4.984,4.984,0,0,1,3,13.613V12A5.006,5.006,0,0,1,8,7H24a5.006,5.006,0,0,1,5,5v1.613a4.984,4.984,0,0,1-4.179,4.932l-5.738.955Z" id="id_103" style="fill: rgb(15, 20, 24);"></path><rect class="cls-3" x="13" y="17" width="6" height="4" rx="1" id="id_104" style="fill: rgb(32, 178, 166);"></rect></svg>